<svg xmlns="http://www.w3.org/2000/svg" xmlns:xlink="http://www.w3.org/1999/xlink" fill="none" version="1.1" width="18" height="18" viewBox="0 0 18 18"><defs><clipPath id="master_svg0_19_0700"><rect x="0" y="0" width="18" height="18" rx="0"/></clipPath></defs><g clip-path="url(#master_svg0_19_0700)"><g><path d="M0.63897725194725,3.75316015625C0.63897725194725,5.47216015625,3.77097705078125,6.86716015625,7.64097705078125,6.86716015625C11.51097705078125,6.86716015625,14.64297705078125,5.47216015625,14.64297705078125,3.75316015625C14.64297705078125,2.03416015625,11.51097705078125,0.63916015625,7.64097705078125,0.63916015625C3.77997705078125,0.63916015625,0.63897725194725,2.03416015625,0.63897725194725,3.75316015625ZM17.36097705078125,13.95916015625L17.36097705078125,12.98716015625L16.20897705078125,12.78016015625C16.136977050781248,12.51016015625,16.02897705078125,12.24916015625,15.88497705078125,12.00616015625L16.55097705078125,11.06116015625L15.88497705078125,10.36816015625L14.93097705078125,11.06116015625C14.69697705078125,10.91716015625,14.43597705078125,10.80016015625,14.16597705078125,10.73716015625L13.95897705078125,9.59416015625L12.98697705078125,9.59416015625L12.77997705078125,10.74616015625C12.50997705078125,10.80916015625,12.24897705078125,10.90816015625,12.00597705078125,11.04316015625L11.06097705078125,10.37716015625L10.36797705078125,11.07016015625L11.03397705078125,12.01516015625C10.88997705078125,12.24916015625,10.77297705078125,12.51016015625,10.70997705078125,12.78916015625L9.58497705078125,12.98716015625L9.58497705078125,13.95916015625L10.71897705078125,14.16616015625C10.78197705078125,14.43616015625,10.89897705078125,14.69716015625,11.04297705078125,14.93116015625L10.37697705078125,15.88516015625L11.06997705078125,16.57816015625L12.01497705078125,15.91216015625C12.25797705078125,16.04716015625,12.51897705078125,16.146160156249998,12.78897705078125,16.20916015625L12.98697705078125,17.37016015625L13.95897705078125,17.37016015625L14.16597705078125,16.21816015625C14.43597705078125,16.146160156249998,14.69697705078125,16.03816015625,14.93097705078125,15.89416015625L15.88497705078125,16.58716015625L16.57797705078125,15.89416015625L15.88497705078125,14.94016015625C16.02897705078125,14.70616015625,16.145977050781248,14.44516015625,16.20897705078125,14.17516015625L17.36097705078125,13.95916015625ZM13.48197705078125,14.83216015625C12.73497705078125,14.83216015625,12.12297705078125,14.22916015625,12.11397705078125,13.48216015625C12.11397705078125,12.73516015625,12.71697705078125,12.12316015625,13.46397705078125,12.11416015625C14.21097705078125,12.11416015625,14.82297705078125,12.71716015625,14.83197705078125,13.46416015625L14.83197705078125,13.47316015625C14.83197705078125,14.22016015625,14.21997705078125,14.83216015625,13.48197705078125,14.83216015625ZM7.64097705078125,10.11616015625C8.30697705078125,10.11616015625,8.96397705078125,10.08016015625,9.62097705078125,9.99016015625L10.14297705078125,9.46816015625C10.38597705078125,9.22516015625,10.70997705078125,9.08116015625,11.06097705078125,9.08116015625C11.29497705078125,9.08116015625,11.52897705078125,9.14416015625,11.72697705078125,9.26116015625C11.87997705078125,8.69416015625,12.39297705078125,8.28916015625,12.98697705078125,8.28916015625L13.99497705078125,8.28916015625C14.38197705078125,7.96516015625,14.61597705078125,7.49716015625,14.64297705078125,6.99316015625L14.64297705078125,4.608160156249999C14.64297705078125,6.32716015625,11.51097705078125,7.72216015625,7.64097705078125,7.72216015625C3.77097705078125,7.72216015625,0.63897725194725,6.32716015625,0.63897725194725,4.608160156249999L0.63897725194725,6.99316015625C0.63897725194725,8.72116015625,3.77097705078125,10.11616015625,7.64097705078125,10.11616015625ZM9.09897705078125,10.89916015625C8.63097705078125,10.94416015625,8.14497705078125,10.96216015625,7.64097705078125,10.96216015625C3.77097705078125,10.96216015625,0.63897758722325,9.56716015625,0.63897758722325,7.84816015625L0.63897758722325,10.23316015625C0.63897758722325,11.95216015625,3.77097705078125,13.34716015625,7.64097705078125,13.34716015625C7.85697705078125,13.34716015625,8.072977050781251,13.34716015625,8.28897705078125,13.32916015625L8.28897705078125,12.98716015625C8.28897705078125,12.39316015625,8.68497705078125,11.88016015625,9.26097705078125,11.72716015625C9.11697705078125,11.48416015625,9.06297705078125,11.18716015625,9.09897705078125,10.89916015625ZM8.30697705078125,14.20216015625L7.64097705078125,14.20216015625C3.77097705078125,14.20216015625,0.63897705078125,12.80716015625,0.63897705078125,11.08816015625L0.63897705078125,13.47316015625C0.63897705078125,15.19216015625,3.77097705078125,16.58716015625,7.64097705078125,16.58716015625C8.18097705078125,16.58716015625,8.72097705078125,16.56016015625,9.26097705078125,16.50616015625C9.02697705078125,16.10116015625,9.02697705078125,15.61516015625,9.26097705078125,15.21016015625C8.77497705078125,15.09316015625,8.40597705078125,14.69716015625,8.30697705078125,14.20216015625Z" fill="#999999" fill-opacity="1" style="mix-blend-mode:passthrough"/></g></g></svg>