<svg xmlns="http://www.w3.org/2000/svg" xmlns:xlink="http://www.w3.org/1999/xlink" fill="none" version="1.1" width="18" height="18" viewBox="0 0 18 18"><defs><clipPath id="master_svg0_19_0692"><rect x="0" y="0" width="18" height="18" rx="0"/></clipPath></defs><g clip-path="url(#master_svg0_19_0692)"><g><path d="M5.16015931640625,16.326489062500002L2.06098331640625,16.326489062500002C1.93701631640625,16.326489062500002,1.81304931640625,16.2024890625,1.81304931640625,16.078489062499997L1.81304931640625,13.0412890625C1.81304931640625,12.9173890625,1.93701631640625,12.7933890625,2.06098331640625,12.7933890625L5.16015931640625,12.7933890625C5.28411931640625,12.7933890625,5.40808931640625,12.9173890625,5.40808931640625,13.0412890625L5.40808931640625,16.078489062499997C5.40808931640625,16.2024890625,5.28411931640625,16.326489062500002,5.16015931640625,16.326489062500002ZM15.94524931640625,16.326489062500002L12.84614931640625,16.326489062500002C12.72214931640625,16.326489062500002,12.59814931640625,16.2024890625,12.59814931640625,16.078489062499997L12.59814931640625,13.0412890625C12.59814931640625,12.9173890625,12.72214931640625,12.7933890625,12.84614931640625,12.7933890625L15.94524931640625,12.7933890625C16.06924931640625,12.7933890625,16.193249316406252,12.9173890625,16.193249316406252,13.0412890625L16.193249316406252,16.078489062499997C16.193249316406252,16.2024890625,16.06924931640625,16.326489062500002,15.94524931640625,16.326489062500002ZM10.55271931640625,5.5413290625L7.45354931640625,5.5413290625C7.32957931640625,5.5413290625,7.20560931640625,5.4173590625,7.20560931640625,5.2933990625L7.20560931640625,2.1942230625C7.20560931640625,2.0702560625,7.32957931640625,1.9462890625,7.45354931640625,1.9462890625L10.55271931640625,1.9462890625C10.67668931640625,1.9462890625,10.80064931640625,2.0702560625,10.80064931640625,2.1942230625L10.80064931640625,5.2314090625C10.80064931640625,5.4173590625,10.67668931640625,5.5413290625,10.55271931640625,5.5413290625Z" fill="#999999" fill-opacity="1" style="mix-blend-mode:passthrough"/></g><g><path d="M16.81299013671875,11.243840234375L14.39569013671875,11.243840234375L14.39569013671875,9.384360234375C14.39569013671875,8.888490234375,14.02379013671875,8.516590234375,13.52789013671875,8.516590234375L9.31301013671875,8.516590234375L9.31301013671875,6.905020234375L11.35849013671875,6.905020234375C11.85429013671875,6.905020234375,12.22619013671875,6.533120234375,12.22619013671875,6.037250234375L12.22619013671875,1.326509234375C12.22619013671875,0.830641234375,11.85429013671875,0.458740234375,11.35849013671875,0.458740234375L6.64772013671875,0.458740234375C6.21384013671875,0.458740234375,5.77995013671875,0.8926242343749999,5.77995013671875,1.326509234375L5.77995013671875,6.037250234375C5.77995013671875,6.533120234375,6.15185013671875,6.905020234375,6.64772013671875,6.905020234375L8.69318013671875,6.905020234375L8.69318013671875,8.516590234375L4.54028013671875,8.516590234375C4.04441013671875,8.516590234375,3.67251013671875,8.888490234375,3.67251013671875,9.384360234375L3.67251013671875,11.243840234375L1.25515913671875,11.243840234375C0.75929113671875,11.243840234375,0.38739013671875,11.615740234375,0.38739013671875,12.111640234375L0.38739013671875,16.822340234375C0.38739013671875,17.318240234375,0.75929113671875,17.690140234375,1.25515913671875,17.690140234375L5.96590013671875,17.690140234375C6.46177013671875,17.690140234375,6.83367013671875,17.318240234375,6.83367013671875,16.822340234375L6.83367013671875,12.111640234375C6.83367013671875,11.615740234375,6.46177013671875,11.243840234375,5.96590013671875,11.243840234375L4.23037013671875,11.243840234375L4.23037013671875,9.384360234375C4.23037013671875,9.260390234375,4.35433013671875,9.136430234375,4.47830013671875,9.136430234375L13.46589013671875,9.136430234375C13.58989013671875,9.136430234375,13.71379013671875,9.260390234375,13.71379013671875,9.384360234375L13.71379013671875,11.243840234375L12.04029013671875,11.243840234375C11.54439013671875,11.243840234375,11.17249013671875,11.615740234375,11.17249013671875,12.111640234375L11.17249013671875,16.822340234375C11.17249013671875,17.318240234375,11.54439013671875,17.690140234375,12.04029013671875,17.690140234375L16.75099013671875,17.690140234375C17.24689013671875,17.690140234375,17.61879013671875,17.318240234375,17.61879013671875,16.822340234375L17.61879013671875,12.111640234375C17.68079013671875,11.677740234375,17.30889013671875,11.243840234375,16.81299013671875,11.243840234375ZM6.39979013671875,6.037250234375L6.39979013671875,1.326509234375C6.39979013671875,1.202542234375,6.52375013671875,1.0785752343750001,6.70970013671875,1.0785752343750001L11.42049013671875,1.0785752343750001C11.54439013671875,1.0785752343750001,11.66839013671875,1.202542234375,11.66839013671875,1.326509234375L11.66839013671875,6.037250234375C11.66839013671875,6.161220234375,11.54439013671875,6.285190234375,11.42049013671875,6.285190234375L6.70971013671875,6.285190234375C6.52375013671875,6.347170234375,6.39979013671875,6.223200234375,6.39979013671875,6.037250234375ZM6.21384013671875,12.173640234375L6.21384013671875,16.884340234375C6.21384013671875,17.008340234375,6.08987013671875,17.132340234375,5.96590013671875,17.132340234375L1.25515913671875,17.132340234375C1.13119213671875,17.132340234375,1.0072251367187501,17.008340234375,1.0072251367187501,16.884340234375L1.0072251367187501,12.173640234375C1.0072251367187501,12.049640234375,1.13119213671875,11.925640234375,1.25515913671875,11.925640234375L5.96590013671875,11.925640234375C6.08987013671875,11.925640234375,6.21384013671875,11.987640234375,6.21384013671875,12.173640234375ZM17.06099013671875,16.822340234375C17.06099013671875,16.946340234375,16.93699013671875,17.070340234375,16.81299013671875,17.070340234375L12.10229013671875,17.070340234375C11.97829013671875,17.070340234375,11.85429013671875,16.946340234375,11.85429013671875,16.822340234375L11.85429013671875,12.111640234375C11.85429013671875,11.987640234375,11.97829013671875,11.863740234375,12.10229013671875,11.863740234375L16.81299013671875,11.863740234375C16.93699013671875,11.863740234375,17.06099013671875,11.987640234375,17.06099013671875,12.111640234375L17.06099013671875,16.822340234375Z" fill="#999999" fill-opacity="1" style="mix-blend-mode:passthrough"/></g><g><path d="M5.96591533203125,17.999993359375L1.25516533203125,17.999993359375C0.63533333203125,17.999993359375,0.13946533203125,17.504093359375,0.13946533203125,16.884293359375L0.13946533203125,12.173493359375C0.13946533203125,11.553693359375,0.63533333203125,11.057793359375,1.25516533203125,11.057793359375L3.42458533203125,11.057793359375L3.42458533203125,9.446233359375C3.42458533203125,8.826393359375,3.92045533203125,8.330523359375,4.54029533203125,8.330523359375L8.50723533203125,8.330523359375L8.50723533203125,7.214823359375L6.70971533203125,7.214823359375C6.08987533203125,7.214823359375,5.59401533203125,6.718963359375,5.59401533203125,6.099123359375L5.59401533203125,1.326393359375C5.59401533203125,0.706561359375,6.08987533203125,0.210693359375,6.70971533203125,0.210693359375L11.42046533203125,0.210693359375C12.04026533203125,0.210693359375,12.53616533203125,0.706561359375,12.53616533203125,1.326393359375L12.53616533203125,6.037143359375C12.53616533203125,6.656973359375,12.04026533203125,7.152843359375,11.42046533203125,7.152843359375L9.62293533203125,7.152843359375L9.62293533203125,8.268543359375L13.58986533203125,8.268543359375C14.20966533203125,8.268543359375,14.70556533203125,8.764413359375,14.70556533203125,9.384243359375L14.70556533203125,10.995793359375L16.87496533203125,10.995793359375C17.49486533203125,10.995793359375,17.99066533203125,11.491693359375,17.99066533203125,12.111493359375L17.99066533203125,16.822293359375C17.99066533203125,17.442093359375,17.49486533203125,17.937993359375,16.87496533203125,17.937993359375L12.16426533203125,17.937993359375C11.54446533203125,17.937993359375,11.04856533203125,17.442093359375,11.04856533203125,16.822293359375L11.04856533203125,12.111493359375C11.04856533203125,11.491693359375,11.54446533203125,10.995793359375,12.16426533203125,10.995793359375L13.58986533203125,10.995793359375L13.58986533203125,9.384243359375L4.60227533203125,9.384243359375L4.60227533203125,11.057793359375L5.96591533203125,11.057793359375C6.58574533203125,11.057793359375,7.08161533203125,11.553693359375,7.08161533203125,12.173493359375L7.08161533203125,16.884293359375C7.08161533203125,17.504093359375,6.58574533203125,17.999993359375,5.96591533203125,17.999993359375ZM1.25516533203125,11.553693359375C0.88326733203125,11.553693359375,0.63533333203125,11.801593359375,0.63533333203125,12.173493359375L0.63533333203125,16.884293359375C0.63533333203125,17.256193359375,0.94525033203125,17.504093359375,1.25516533203125,17.504093359375L5.96591533203125,17.504093359375C6.33781533203125,17.504093359375,6.58574533203125,17.256193359375,6.58574533203125,16.884293359375L6.58574533203125,12.173493359375C6.58574533203125,11.801593359375,6.27582533203125,11.553693359375,5.96591533203125,11.553693359375L3.98244533203125,11.553693359375L3.98244533203125,9.446233359375C3.98244533203125,9.136313359375,4.23037533203125,8.950363359375,4.47830533203125,8.950363359375L13.46586533203125,8.950363359375C13.77586533203125,8.950363359375,13.96176533203125,9.198293359375,13.96176533203125,9.446233359375L13.96176533203125,11.553693359375L12.04026533203125,11.553693359375C11.66836533203125,11.553693359375,11.42046533203125,11.801593359375,11.42046533203125,12.173493359375L11.42046533203125,16.884293359375C11.42046533203125,17.256193359375,11.66836533203125,17.504093359375,12.04026533203125,17.504093359375L16.75106533203125,17.504093359375C17.12296533203125,17.504093359375,17.37086533203125,17.194193359375,17.37086533203125,16.884293359375L17.37086533203125,12.173493359375C17.37086533203125,11.801593359375,17.06096533203125,11.553693359375,16.75106533203125,11.553693359375L14.08576533203125,11.553693359375L14.08576533203125,9.446233359375C14.08576533203125,9.074333359375,13.83776533203125,8.826393359375,13.46586533203125,8.826393359375L9.06508533203125,8.826393359375L9.06508533203125,6.656973359375L11.35846533203125,6.656973359375C11.73036533203125,6.656973359375,11.97826533203125,6.347053359375,11.97826533203125,6.037133359375L11.97826533203125,1.326393359375C11.97826533203125,0.954493359375,11.73036533203125,0.7065593593749999,11.35846533203125,0.7065593593749999L6.64772533203125,0.7065593593749999C6.27582533203125,0.7065593593749999,6.02789533203125,1.016477359375,6.02789533203125,1.326393359375L6.02789533203125,6.037133359375C6.02789533203125,6.409043359375,6.33781533203125,6.656973359375,6.64772533203125,6.656973359375L8.94111533203125,6.656973359375L8.94111533203125,8.764413359375L4.54028533203125,8.764413359375C4.16838533203125,8.764413359375,3.92045533203125,9.074333359375,3.92045533203125,9.384243359375L3.92045533203125,11.491693359375L1.25516533203125,11.491693359375L1.25516533203125,11.553693359375ZM5.96591533203125,17.380093359375L1.25516533203125,17.380093359375C0.94525033203125,17.380093359375,0.75930033203125,17.132193359375,0.75930033203125,16.884293359375L0.75930033203125,12.173493359375C0.75930033203125,11.863593359375,1.00723433203125,11.677593359375,1.25516533203125,11.677593359375L5.96591533203125,11.677593359375C6.27582533203125,11.677593359375,6.46177533203125,11.925593359375,6.46177533203125,12.173493359375L6.46177533203125,16.884293359375C6.46177533203125,17.132193359375,6.21384533203125,17.380093359375,5.96591533203125,17.380093359375ZM1.25516533203125,12.173493359375L1.25516533203125,16.884293359375L5.96591533203125,16.884293359375L5.96591533203125,12.173493359375L1.25516533203125,12.173493359375ZM16.81306533203125,17.318093359375L12.10226533203125,17.318093359375C11.79236533203125,17.318093359375,11.60636533203125,17.070193359375,11.60636533203125,16.822293359375L11.60636533203125,12.111493359375C11.60636533203125,11.801593359375,11.85436533203125,11.615693359375,12.10226533203125,11.615693359375L16.81306533203125,11.615693359375C17.12296533203125,11.615693359375,17.30886533203125,11.863593359375,17.30886533203125,12.111493359375L17.30886533203125,16.822293359375C17.30886533203125,17.070193359375,17.06096533203125,17.318093359375,16.81306533203125,17.318093359375ZM12.10226533203125,12.111493359375L12.10226533203125,16.822293359375L16.81306533203125,16.822293359375L16.81306533203125,12.111493359375L12.10226533203125,12.111493359375ZM11.35846533203125,6.594993359375L6.64773533203125,6.594993359375C6.39979533203125,6.594993359375,6.15186533203125,6.347053359375,6.15186533203125,6.037143359375L6.15186533203125,1.326393359375C6.15186533203125,1.016479359375,6.39979533203125,0.830528359375,6.64772533203125,0.830528359375L11.35846533203125,0.830528359375C11.66836533203125,0.830528359375,11.85436533203125,1.078462359375,11.85436533203125,1.326393359375L11.85436533203125,6.037143359375C11.91636533203125,6.347053359375,11.66836533203125,6.594993359375,11.35846533203125,6.594993359375ZM6.70971533203125,1.326393359375L6.70971533203125,6.037143359375L11.42046533203125,6.037143359375L11.42046533203125,1.326393359375L6.70971533203125,1.326393359375Z" fill="#999999" fill-opacity="1" style="mix-blend-mode:passthrough"/></g></g></svg>