<svg xmlns="http://www.w3.org/2000/svg" xmlns:xlink="http://www.w3.org/1999/xlink" fill="none" version="1.1" width="16" height="16" viewBox="0 0 16 16"><defs><clipPath id="master_svg0_19_0704"><rect x="0" y="0" width="16" height="16" rx="0"/></clipPath></defs><g clip-path="url(#master_svg0_19_0704)"><g><path d="M15.9999,1.33526L15.9999,15.9832L2.68526,15.9832C1.20889,15.9853,0.00838873,14.7954,0.00001375,13.3189L0.00001375,2.68326C-0.00217755,1.97058,0.28059,1.2866,0.785388,0.783514C1.28979,0.279621,1.97429,-0.0023653,2.68726,0.000015L13.3358,0.000015L13.3358,10.6569L2.70001,10.6569C1.94176,10.6546,1.32476,11.2655,1.32264,12.0238L1.32264,13.3021C1.32676,14.0541,1.93751,14.6629,2.68951,14.667L14.6582,14.667L14.6582,1.33526L15.9999,1.33526ZM13.3335,11.9879L2.66839,11.9879L2.66839,13.3233L13.3335,13.3233L13.3335,11.9879Z" fill="#999999" fill-opacity="1" style="mix-blend-mode:passthrough"/></g></g></svg>