<svg xmlns="http://www.w3.org/2000/svg" xmlns:xlink="http://www.w3.org/1999/xlink" fill="none" version="1.1" width="16" height="16" viewBox="0 0 16 16"><defs><clipPath id="master_svg0_32_04944"><rect x="0" y="0" width="16" height="16" rx="0"/></clipPath></defs><g clip-path="url(#master_svg0_32_04944)"><g><path d="M15.6847,2.93596Q15.5271,3.1133,15.3892,3.25123L15.1527,3.48768Q15.0345,3.60591,14.936,3.68473L12.2759,1.00493Q12.4335,0.84729,12.67,0.630541Q12.9064,0.413792,13.064,0.295566Q13.4581,-0.0197051,13.9113,0.0197039Q14.3645,0.0591128,14.6404,0.197044Q14.936,0.354679,15.3005,0.748768Q15.665,1.14286,15.8621,1.57635Q15.9606,1.85222,15.9901,2.2266Q16.0197,2.60098,15.6847,2.93596ZM8.15764,5.12315L11.2118,2.06896L13.8719,4.72906Q12.197,6.40394,10.8177,7.76355Q10.2266,8.33497,9.66503,8.89655Q9.10345,9.45813,8.6404,9.90148Q8.17734,10.3448,7.88177,10.6404L7.52709,10.9951Q7.38916,11.133,7.21182,11.2709Q7.03448,11.4089,6.81773,11.5074Q6.60099,11.6059,6.21675,11.7438Q5.83251,11.8818,5.41872,12.0099Q5.00493,12.1379,4.63054,12.2463Q4.25616,12.3547,4.05911,12.3744Q3.68473,12.4138,3.65517,12.3054Q3.62562,12.197,3.68473,11.8227Q3.70443,11.6256,3.78325,11.2414Q3.86207,10.8571,3.94089,10.4631Q4.0197,10.069,4.10838,9.72414Q4.19705,9.37931,4.25616,9.24138Q4.35468,9.02463,4.46306,8.86699Q4.57143,8.70936,4.76847,8.51231L8.15764,5.12315ZM14.8374,7.9803Q15.2512,7.9803,15.6256,8.17734Q16,8.37438,16,8.98522L16,13.4581Q16,14.0099,15.7931,14.4729Q15.5862,14.936,15.2315,15.2808Q14.8768,15.6256,14.4236,15.8128Q13.9704,16,13.4975,16L2.50246,16Q2.02956,16,1.57635,15.7931Q1.12315,15.5862,0.778325,15.2315Q0.433497,14.8768,0.216749,14.3941Q1.46809e-7,13.9113,0,13.3596L0,2.38424Q0,1.99015,0.216749,1.5665Q0.433498,1.14286,0.778325,0.79803Q1.12315,0.453202,1.55665,0.226601Q1.99015,0,2.42365,0L7.01478,0Q7.5665,0,7.7931,0.403941Q8.0197,0.807882,8.0197,1.22168Q8.0197,1.63547,7.7931,2.0197Q7.5665,2.40394,7.01478,2.40394L3.40887,2.40394Q2.99507,2.40394,2.73892,2.68966Q2.48276,2.97537,2.48276,3.38916L2.48276,12.6502Q2.48276,13.0443,2.73892,13.3103Q2.99507,13.5764,3.40887,13.5764L12.532,13.5764Q12.9458,13.5764,13.2414,13.3103Q13.5369,13.0443,13.5369,12.6502L13.5369,8.98522Q13.5369,8.70936,13.665,8.51232Q13.7931,8.31527,13.9803,8.19705Q14.1675,8.07882,14.3941,8.02956Q14.6207,7.9803,14.8374,7.9803Z" fill="#2F90B9" fill-opacity="1" style="mix-blend-mode:passthrough"/></g></g></svg>