<svg xmlns="http://www.w3.org/2000/svg" xmlns:xlink="http://www.w3.org/1999/xlink" fill="none" version="1.1" width="20" height="20" viewBox="0 0 20 20"><defs><clipPath id="master_svg0_32_09253"><rect x="0" y="0" width="20" height="20" rx="0"/></clipPath></defs><g clip-path="url(#master_svg0_32_09253)"><g><g><path d="M18,18.1341C18.0005,18.6047,17.6619,18.9865,17.2438,18.9869L2.775164,19C2.357092,19.0004,2.0176774,18.6192,2.0171543,18.1485L2.000000623443,1.862454C1.999477555,1.391769,2.338056,1.00999811,2.756232,1.00960982L13.4019,1L17.9861,4.990880000000001L18,18.1341Z" fill="#E6E4E2" fill-opacity="1" style="mix-blend-mode:passthrough"/><path d="M18.25,18.1338L18.2361,4.99061L18.236,4.87695L13.4954,0.749916L2.7560000000000002,0.75961Q2.330053,0.760005,2.0340545,1.0938018Q1.749503,1.41469,1.750001,1.862717L1.7671540000000001,18.1488Q1.767652,18.5968,2.0528552,18.9171Q2.349542,19.2504,2.775391,19.25L17.244,19.2369Q17.6699,19.2365,17.965899999999998,18.9027Q18.2505,18.5818,18.25,18.1338ZM17.7362,5.1048L17.75,18.1343Q17.7503,18.3923,17.5918,18.571Q17.4449,18.7367,17.243499999999997,18.7369L2.774938,18.75Q2.267823,18.7505,2.267154,18.1482L2.25,1.8621910000000002Q2.249714,1.604212,2.408154,1.4255390000000001Q2.555128,1.259797,2.7564640000000002,1.25961L13.3085,1.250084L17.7362,5.1048Z" fill-rule="evenodd" fill="#C2C2C2" fill-opacity="1"/></g><g><path d="M17.99983,5.0946618359375L14.136356,5.0981518359375C13.718284,5.0985418359375,13.37886909,4.7173518359374995,13.37834664,4.2466718359375L13.375,1.1038818359375L17.99983,5.0946618359375Z" fill="#C4BCB1" fill-opacity="1" style="mix-blend-mode:passthrough"/></g><g><path d="M14.06611359375,7.81664915625C14.06611359375,8.05274615625,13.85987359375,8.24413915625,13.60546359375,8.24413915625L6.00507659375,8.24413915625C5.75067059375,8.24413915625,5.54443359375,8.05274615625,5.54443359375,7.81664915625C5.54443359375,7.58055315625,5.75067059375,7.38916015625,6.00507659375,7.38916015625L13.60557359375,7.38916015625C13.85993359375,7.38921396355,14.06610359375,7.58059215625,14.06611359375,7.81664915625ZM14.06611359375,11.022820156249999C14.06611359375,11.25892015625,13.85987359375,11.45031015625,13.60546359375,11.45031015625L6.00507659375,11.45031015625C5.75067059375,11.45031015625,5.54443359375,11.25892015625,5.54443359375,11.022820156249999C5.54443359375,10.78673015625,5.75067059375,10.59533015625,6.00507659375,10.59533015625L13.60557359375,10.59533015625C13.85993359375,10.59539015625,14.06610359375,10.78676015625,14.06611359375,11.022820156249999ZM14.06611359375,14.44264015625C14.06611359375,14.67874015625,13.85987359375,14.87013015625,13.60546359375,14.87013015625L6.00507659375,14.87013015625C5.75067059375,14.87013015625,5.54443359375,14.67874015625,5.54443359375,14.44264015625C5.54443359375,14.20655015625,5.75067059375,14.01515015625,6.00507659375,14.01515015625L13.60557359375,14.01515015625C13.85993359375,14.01521015625,14.06610359375,14.20659015625,14.06611359375,14.44264015625Z" fill="#C4BCB1" fill-opacity="1" style="mix-blend-mode:passthrough"/></g></g></g></svg>