<svg xmlns="http://www.w3.org/2000/svg" xmlns:xlink="http://www.w3.org/1999/xlink" fill="none" version="1.1" width="20.0205078125" height="20" viewBox="0 0 20.0205078125 20"><g><g><g><path d="M1.96859755859375,3.8719019140624997L9.98655755859375,3.8719019140624997Q11.02249755859375,2.0484619140625,12.07479755859375,2.0484619140625L18.04909755859375,2.0484619140625C18.53419755859375,2.0484619140625,18.93269755859375,2.5125249140625,18.93269755859375,3.0797119140625L18.95839755859375,17.0976619140625C18.95839755859375,17.6648619140625,18.49439755859375,18.1289619140625,17.92719755859375,18.1289619140625L1.96624755859375,18.1289619140625C1.39906055859375,18.1289619140625,0.93499755859375,17.6648619140625,0.93499755859375,17.0976619140625L0.93499755859375,4.9031519140625C0.93734126859375,4.3359619140625,1.40140355859375,3.8719019140624997,1.96859755859375,3.8719019140624997Z" fill="#694B4B" fill-opacity="1" style="mix-blend-mode:passthrough"/></g><g><path d="M18.20389375,13.8351931640625L2.07890575,14.7327931640625L1.55859375,5.2078331640624995L17.68589375,3.8179931640625L18.20389375,13.8351931640625Z" fill="#593F3F" fill-opacity="1" style="mix-blend-mode:passthrough"/></g><g><path d="M18.38886005859375,13.8421630859375L3.65609105859375,14.6671630859375L3.16156005859375,5.5734130859375L18.03496005859375,4.7484130859375L18.38886005859375,13.8421630859375Z" fill="#593F3F" fill-opacity="1" style="mix-blend-mode:passthrough"/></g><g><path d="M17.683625,13.8868408203125L3.091406,15.0891908203125L2.578125,6.1032508203125L17.189025,4.7930908203125L17.683625,13.8868408203125Z" fill="#FFFFFF" fill-opacity="1" style="mix-blend-mode:passthrough"/></g><g><path d="M16.91458056640625,14.8570544140625L2.16539256640625,15.6750244140625L1.64508056640625,6.1523644140625L16.40368056640625,5.0250244140625L16.91458056640625,14.8570544140625Z" fill="#F2F2F1" fill-opacity="1" style="mix-blend-mode:passthrough"/></g><g><path d="M16.63572431640625,14.8196057421875L2.12789331640625,15.6703857421875L1.60992431640625,6.1477297421875L16.11302431640625,5.2078857421875L16.63572431640625,14.8196057421875Z" fill="#FFFFFF" fill-opacity="1" style="mix-blend-mode:passthrough"/></g><g><path d="M18.9609,8.0602808203125L9.91172,8.0602808203125Q8.87578,6.3868408203125,7.82344,6.3868408203125L0.911719,6.3868408203125C0.426562,6.3868408203125,0,6.7688718203125,0,7.2305908203125L0.9375,17.289940820312502C0.9375,17.751640820312502,1.40156,18.1290408203125,1.96875,18.1290408203125L18.0234,18.1290408203125C18.5906,18.1290408203125,19.0547,17.751640820312502,19.0547,17.289940820312502L19.9922,8.8993408203125C19.9922,8.4376208203125,19.5281,8.0602808203125,18.9609,8.0602808203125Z" fill="#00B5FC" fill-opacity="1" style="mix-blend-mode:passthrough"/></g></g></g></svg>