<svg xmlns="http://www.w3.org/2000/svg" xmlns:xlink="http://www.w3.org/1999/xlink" fill="none" version="1.1" width="20" height="20" viewBox="0 0 20 20"><g><g><g><path d="M1.14085,3.04109L9.99086,3.04109Q11.1343,1,12.2958,1L18.89,1C19.4255,1,19.8653,1.519455,19.8653,2.15434L19.8938,17.8455C19.8938,18.4804,19.3815,18.9999,18.7555,18.9999L1.13826,18.9999C0.512219,18.9999,0,18.4804,0,17.8455L0,4.19543C0.00258693,3.56054,0.514806,3.04109,1.14085,3.04109Z" fill="#694B4B" fill-opacity="1" style="mix-blend-mode:passthrough"/></g><g><path d="M19.0610765625,14.193612890625L1.2627825625,15.198412890625L0.6884765625,4.536452890625L18.4893765625,2.980712890625L19.0610765625,14.193612890625Z" fill="#593F3F" fill-opacity="1" style="mix-blend-mode:passthrough"/></g><g><path d="M19.26501953125,14.201416796875L3.0033695312499997,15.124916796875L2.45751953125,4.945691796875L18.87441953125,4.022216796875L19.26501953125,14.201416796875Z" fill="#593F3F" fill-opacity="1" style="mix-blend-mode:passthrough"/></g><g><path d="M18.4864765625,14.251465625L2.3800215625,15.597365625L1.8134765625,5.538805625L17.9405765625,4.072265625L18.4864765625,14.251465625Z" fill="#FFFFFF" fill-opacity="1" style="mix-blend-mode:passthrough"/></g><g><path d="M17.63779140625,15.3375091796875L1.35799740625,16.2531091796875L0.78369140625,5.5938191796875L17.07379140625,4.3319091796875L17.63779140625,15.3375091796875Z" fill="#F2F2F1" fill-opacity="1" style="mix-blend-mode:passthrough"/></g><g><path d="M17.32962890625,15.2954990234375L1.31634890625,16.2477990234375L0.74462890625,5.5885290234375L16.75272890625,4.5364990234375L17.32962890625,15.2954990234375Z" fill="#FFFFFF" fill-opacity="1" style="mix-blend-mode:passthrough"/></g><g><path d="M18.8136296875,7.7294806640625L9.9084196875,7.7294606640625005Q8.9374396875,6.0914306640625,7.7758896875,6.0914306640625L1.1411896875,6.0914306640625C0.0029296875,6.0914306640625,0.0029296875,7.2126506640625,0.0029296875,7.7294806640625L0.0029296875,18.0608306640625C0.0029296875,18.5776306640625,0.5151486875,19.0000306640625,1.1411896875,19.0000306640625L18.8619296875,19.0000306640625C19.4879296875,19.0000306640625,20.0001296875,18.5776306640625,20.0001296875,18.0608306640625L19.9173296875,8.8898406640625C19.9173296875,8.3730106640625,19.4396296875,7.7294806640625,18.8136296875,7.7294806640625Z" fill="#2F90B9" fill-opacity="1"/></g></g></g></svg>