<svg xmlns="http://www.w3.org/2000/svg" xmlns:xlink="http://www.w3.org/1999/xlink" fill="none" version="1.1" width="16" height="16" viewBox="0 0 16 16"><defs><clipPath id="master_svg0_32_04940"><rect x="0" y="0" width="16" height="16" rx="0"/></clipPath></defs><g clip-path="url(#master_svg0_32_04940)"><g><path d="M14.9582,0.92699L11.0617,0.92699Q10.47328,0.94528,10.011,0.444288C9.82475,0.2284,9.51287,0.0179785,9.00017,0L8.26235,0L8.149840000000001,0L7.41205,0C6.89933,0.0179968,6.58737,0.228418,6.40122,0.444288Q5.93886,0.94528,5.35049,0.92699L1.453957,0.92699C1.203268,0.92699,1.00000191357,1.13026,1.00000191357,1.38095L1.00000191357,3.0487Q0.999048,3.53111,1.4672939999999999,3.52161L2.36016,3.52161L2.36016,15.1634Q2.28909,15.9532,3.07895,15.9957L7.90387,15.9957L8.50831,15.9957L9.06025,16L9.75,16L12.884,16L13.3193,16L13.3333,15.9957Q14.123,15.9532,14.052,15.1634L14.052,3.52161L14.945,3.52161Q15.4132,3.53111,15.4123,3.0487L15.4123,1.38095C15.4122,1.13027,15.209,0.92699,14.9582,0.92699ZM6.62894,13.1841C6.62894,13.4894,6.3812,13.737,6.07597,13.737C5.77065,13.737,5.52301,13.4894,5.52301,13.1841L5.52301,4.54106C5.52301,4.23574,5.77067,3.98809,6.07597,3.98809C6.38122,3.98809,6.62894,4.23576,6.62894,4.54106L6.62894,13.1841ZM10.80137,13.1841C10.80137,13.4894,10.55371,13.737,10.2484,13.737C9.94315,13.737,9.69544,13.4894,9.69544,13.1841L9.69544,4.54106C9.69544,4.23574,9.94317,3.98809,10.2484,3.98809C10.55371,3.98809,10.80137,4.23576,10.80137,4.54106L10.80137,13.1841Z" fill="#FF9000" fill-opacity="1" style="mix-blend-mode:passthrough"/></g></g></svg>