<svg xmlns="http://www.w3.org/2000/svg" xmlns:xlink="http://www.w3.org/1999/xlink" fill="none" version="1.1" width="18" height="18" viewBox="0 0 18 18"><defs><clipPath id="master_svg0_19_0679"><rect x="0" y="0" width="18" height="18" rx="0"/></clipPath></defs><g clip-path="url(#master_svg0_19_0679)"><g><path d="M16.2734363671875,13.653226796875C16.2126563671875,13.422546796875,16.121276367187498,13.201046796875,16.0017263671875,12.994606796875L16.5203963671875,12.213856796875L16.5176963671875,12.212506796875001L15.7808663671875,11.475766796875L15.779516367187501,11.474416796875L14.9987663671875,11.993086796875C14.793086367187499,11.874006796875,14.5725663671875,11.782643796875,14.3429363671875,11.721376796875L14.1562763671875,10.803466796875L13.1121863671875,10.803466796875L12.9255263671875,11.720026796875C12.695856367187499,11.781271796875,12.4753063671875,11.872636796875,12.2696063671875,11.991736796875L11.4888563671875,11.474416796875L10.7493253671875,12.213946796875L11.2679063671875,12.994696796875001C11.1474063671875,13.200806796875,11.0555723671875,13.422396796875,10.9949363671875,13.653316796875L10.0770263671875,13.839976796875L10.0770263671875,14.884066796875L10.9949363671875,15.070726796875C11.0562263671875,15.301216796875,11.1475463671875,15.522656796875001,11.2665563671875,15.729346796875L10.7479753671875,16.510096796875L11.4875063671875,17.249626796875L12.2696063671875,16.731046796875C12.4753463671875,16.850036796875,12.6958963671875,16.941366796875002,12.9255263671875,17.002666796875L13.1121863671875,17.920576796875L14.1562763671875,17.920576796875L14.3429363671875,17.002666796875C14.5726263671875,16.941626796875,14.793176367187499,16.850286796875,14.9987663671875,16.731046796875L15.779516367187501,17.249626796875L15.7808663671875,17.248276796875L16.5176963671875,16.511536796875L16.5190463671875,16.510186796875L16.0003763671875,15.729436796875C16.1198763671875,15.522986796875,16.2112563671875,15.301486796875,16.272086367187498,15.070816796875L17.1899963671875,14.883976796875L17.1899963671875,13.839886796875L16.2734363671875,13.653226796875ZM13.6362563671875,15.596146796875C12.9535163671875,15.595336796875,12.4006463671875,15.041296796874999,12.4013663671875,14.358466796875C12.4021763671875,13.675726796875,12.9562163671875,13.122856796875,13.6389563671875,13.123576796875C14.3217863671875,13.124296796875,14.8746563671875,13.678426796875,14.8739363671875,14.361256796875C14.8732163671875,15.043996796875,14.3190863671875,15.596866796875,13.6362563671875,15.596146796875Z" fill="#999999" fill-opacity="1" style="mix-blend-mode:passthrough"/></g><g><path d="M12.58883056640625,10.437405078125Q12.78743056640625,10.290205078125,13.84703056640625,8.361865078125L10.68422056640625,8.361865078125C11.25293056640625,7.543765078125,11.63213056640625,6.466105078125,11.63213056640625,5.268835078125L11.63213056640625,4.989475078125C12.85933056640625,4.769965078125,13.65743056640625,4.420765078125,13.65743056640625,4.0715650781249995C13.65743056640625,3.692485078125,12.76953056640625,3.343195078125,11.41263056640625,3.123685078125C11.35273056640625,2.804365078125,10.43483056640625,0.220285178125,9.35735056640625,0.220285178125C8.87846056640625,0.220285178125,8.49920056640625,0.469675078125,8.24981056640625,0.848845078125C8.24981056640625,1.0384750781249998,8.060270566406249,1.227925078125,7.81079056640625,1.227925078125C7.59128056640625,1.227925078125,7.40174056640625,1.068265078125,7.37186056640625,0.878725078125C7.15235056640625,0.499645078125,6.74321056640625,0.210205078125,6.26432056640625,0.210205078125C5.21672056640625,0.210205078125,4.23887056640625,2.584765078125,4.01945056640625,3.183445078125C2.85215056640625,3.402955078125,2.0938105664062503,3.722185078125,2.0938105664062503,4.101355078125C2.0938105664062503,4.480435078125,2.88203056640625,4.799665078125,4.1192605664062505,5.019265078125L4.1192605664062505,5.298625078125C4.1192605664062505,6.495895078125,4.46846056640625,7.573465078125,5.06714056640625,8.391655078125L1.90418056640625,8.391655078125L3.26111056640625,10.606605078125C2.25338056640625,10.606605078125,0.92633056640625,11.993505078125,0.92633056640625,13.200705078125L0.95630056640625,16.832505078125C0.95630056640625,17.431205078125,1.42520056640625,17.910005078125,2.03387056640625,17.910005078125Q10.62743056640625,17.920505078125,10.94513056640625,17.910005078125C8.57246056640625,15.600105078125,9.41999056640625,11.610105078125,12.58883056640625,10.437405078125ZM7.02248056640625,17.022205078125L6.51362056640625,17.022205078125L5.56574056640625,10.038025078125L7.55132056640625,11.774005078125L7.02248056640625,17.022205078125ZM9.19760056640625,17.022205078125L8.68874056640625,17.022205078125L8.14991056640625,11.774005078125L10.14539056640625,10.008055078125L9.19760056640625,17.022205078125ZM10.39487056640625,5.997115078125L10.39487056640625,6.216625078125L10.14548056640625,6.216625078125Q9.98582056640625,7.573555078125,9.13775056640625,7.573555078125Q8.27969056640625,7.573555078125,8.12012056640625,6.216625078125L7.55150056640625,6.216625078125C7.42181056640625,7.324075078125,6.85310056640625,7.573555078125,6.54377056640625,7.573555078125C5.78552056640625,7.573555078125,5.56592056640625,6.565825078125,5.53604056640625,6.216625078125L5.27666056640625,6.216625078125L5.27666056640625,5.777605078125L7.17233056640625,5.777605078125L7.17233056640625,5.997115078125L8.439530566406251,5.997115078125L8.439530566406251,5.777605078125L10.33520056640625,5.777605078125L10.33520056640625,5.997115078125L10.39487056640625,5.997115078125Z" fill="#999999" fill-opacity="1" style="mix-blend-mode:passthrough"/></g></g></svg>