<svg xmlns="http://www.w3.org/2000/svg" xmlns:xlink="http://www.w3.org/1999/xlink" fill="none" version="1.1" width="18" height="18" viewBox="0 0 18 18"><g><g><path d="M2.53137,12.1188103125C3.93336,11.6052403125,4.68888,11.3522803125,4.96149,11.2679603125C5.21363,11.2020803125,5.45308,11.0959103125,5.67027,10.9536803125C5.79403,10.8799903125,5.90675,10.7897003125,6.00519,10.6854003125L6.00519,10.6394003125C5.96002,10.526790312500001,5.93371,10.4077103125,5.9273,10.286800312499999C5.91916,10.223170312499999,5.91916,10.158790312499999,5.9273,10.095170312499999L5.61575,9.8115503125C5.39849,9.6141303125,5.22598,9.3738303125,5.10948,9.1063403125C5.03159,8.9223703125,4.9537,8.746070312499999,4.89139,8.554440312499999L4.89139,8.4164603125C4.74298,8.2857203125,4.60975,8.139180312499999,4.49416,7.9795403125C4.32107,7.7301403125,4.19448,7.4524103125,4.12029,7.1593503125C3.99645,6.7970203125,3.95134,6.4131303125,3.98788,6.0325503125C4.01336,5.8050603125,4.06563,5.5812603124999995,4.14366,5.3656703125C4.17985,5.257830312499999,4.22411,5.1527903125000005,4.27607,5.051390312500001C4.27859,4.6437603124999995,4.30721,4.2366903125,4.36175,3.8326003125000003C4.41049,3.4138743125,4.48856,2.9989593125,4.59541,2.5908203125L4.43964,2.5908203125C4.24339,2.5931078825,4.0478,2.6136401125,3.85547,2.6521429125C3.65173,2.6875364125,3.45301,2.7467223125,3.26352,2.8284453125C3.05622,2.9275433125,2.86037,3.0483293125,2.67936,3.1887153125C2.47311,3.3523823125,2.29664,3.5493793125,2.15751,3.7712803125C1.98791,4.0345903125,1.85927,4.3213803125000005,1.77585,4.6221303124999995C1.69294,4.9161303125,1.63305,5.2159603125,1.59671,5.5189703125000005C1.55784,5.8496803125,1.54222,6.1826403125,1.54998,6.5154603125C1.42329,6.6857203125,1.34772,6.8875703125,1.33189,7.0980303125C1.30878,7.2299203125,1.30878,7.3647303125,1.33189,7.4966303125C1.36593,7.6162503125,1.41847,7.7300003125,1.48767,7.8339003125C1.53408,7.8995503125,1.5862,7.9611003125,1.64344,8.017870312500001C1.69796,8.0574703125,1.75839,8.088500312499999,1.82259,8.1098503125L1.93942,8.508450312499999C1.98615,8.6234303125,2.0251,8.7307403125,2.07962,8.8457203125C2.119,8.940450312500001,2.17727,9.0264603125,2.25097,9.0986803125C2.38308,9.2082703125,2.50796,9.3260503125,2.62484,9.4512803125C2.74767,9.5827603125,2.81458,9.7556103125,2.81177,9.9342003125L2.81177,10.2944703125C2.81334,10.406630312499999,2.79489,10.5181903125,2.75725,10.6240703125C2.71225,10.7395903125,2.64627,10.8460903125,2.56253,10.9383503125C2.44382,11.0663003125,2.30749,11.1772403125,2.15751,11.2679603125C1.91694,11.4189403125,1.65426,11.5326903125,1.37862,11.6052403125C1.17611,11.6588903125,0.475119,11.9118503125,0,12.0804903125L0,15.3306203125L0.0700995,15.3306203125C0.0700995,15.1389203125,0.116833,14.9243203125,0.155777,14.6407203125L0.155777,14.5640203125C0.229846,13.9072203125,0.549035,13.3008203125,1.05149,12.8623203125C1.46233,12.5429403125,1.92977,12.3012303125,2.43012,12.1494703125L2.53137,12.1494703125L2.53137,12.1188103125ZM17.4548,11.6052403125C17.2277,11.5426703125,17.0041,11.4684703125,16.7849,11.3829403125C16.5917,11.3015803125,16.4128,11.1903003125,16.2553,11.0533303125C16.1334,10.9464903125,16.0353,10.8160103125,15.9671,10.6700703125C15.9131,10.5407503125,15.8815,10.4034203125,15.8736,10.2638103125C15.8576,10.0400503125,15.8894,9.8154703125,15.9671,9.604590312500001C15.9975,9.534300312500001,16.0396,9.4695203125,16.0917,9.4129503125C16.1442,9.3563403125,16.2045,9.3073103125,16.2709,9.267310312500001L16.4734,9.0910103125C16.5508,9.0172603125,16.6118,8.9285203125,16.6525,8.8303903125C16.7072,8.7239703125,16.7541,8.6138103125,16.7927,8.5007803125C16.7927,8.3704703125,16.8706,8.232500312500001,16.9018,8.0945203125C16.9911,8.0655203125,17.0733,8.018530312500001,17.1432,7.9565403125C17.2135,7.8787903125,17.2713,7.7909003125,17.3146,7.6959203125C17.3777,7.5575903125,17.4171,7.4099703125,17.4314,7.2590003125C17.447,7.1419703125,17.447,7.0234303125,17.4314,6.9064003125C17.4098,6.8274203125,17.3811,6.7504703125,17.3457,6.6764403125C17.3265,6.6112803125,17.2853,6.554520312499999,17.2289,6.5154603125C17.2353,6.166910312500001,17.2145,5.8183903125,17.1666,5.4729803125C17.1197,5.1541203125,17.0494,4.839020312500001,16.9563,4.5301503125C16.8376,4.2016503125,16.6667,3.8937703125,16.45,3.6179703125C16.3489,3.4814743125,16.2282,3.3601223125,16.0917,3.2577033125C15.7594,3.0041713125,15.3815,2.8143553125,14.9779,2.6981353125C14.7574,2.6369706125,14.5294,2.6060179125,14.3003,2.6061514125L13.9887,2.6061514125C14.099,2.9853843125,14.1797,3.3723233125,14.2302,3.7636103125C14.2849,4.1498203125,14.3161,4.5388803125,14.3237,4.9287403125C14.459,5.1675003125,14.5537,5.4264303125,14.6041,5.6952703125C14.6475,5.9798503125,14.6475,6.2692203125,14.6041,6.5537903125C14.5654,6.8786903125,14.4788,7.1963103125,14.347,7.4966303125C14.2063,7.7921103125,14.0016,8.0537303125,13.7473,8.2631603125L13.6928,8.4317903125L13.6928,8.4777903125Q13.5837,8.7537403125,13.4591,9.0296903125C13.3041,9.3979303125,13.0545,9.7201803125,12.7347,9.9648603125L12.7347,10.302130312500001C12.7356,10.4510503125,12.7009,10.5980903125,12.6335,10.7313903125C12.7615,10.8319303125,12.903,10.9144803125,13.0541,10.9766803125C13.3061,11.0841703125,13.5666,11.1713303125,13.833,11.2373003125C14.0998,11.3176603125,14.3602,11.4175903125,14.6119,11.5362503125L15.3907,11.8888503125L15.8347,12.0804903125C16.2224,12.2336703125,16.5847,12.4429403125,16.9096,12.7014203125C17.2957,13.0388203125,17.5811,13.4734203125,17.7352,13.9585203125C17.8234,14.2561203125,17.8808,14.5617203125,17.9065,14.8706203125C17.9399,14.9957203125,17.9556,15.1246203125,17.9533,15.2539203125L18,15.2539203125L18,11.9118503125C17.7458,11.7967003125,17.4859,11.6943603125,17.2211,11.6052403125L17.4548,11.6052403125Z" fill="#A6C5F6" fill-opacity="1" style="mix-blend-mode:passthrough"/></g><g><path d="M17.11984306640625,14.4338C17.02384306640625,14.1365,16.84594306640625,13.8711,16.605743066406248,13.6673C16.352943066406247,13.4739,16.07544306640625,13.3141,15.78014306640625,13.1921C15.47644306640625,13.0694,14.13674306640625,12.4255,13.80184306640625,12.3719C13.48674306640625,12.2855,13.17724306640625,12.1806,12.87494306640625,12.0576C12.60914306640625,11.9484,12.36424306640625,11.7954,12.15054306640625,11.6053C11.98364306640625,11.4586,11.85084306640625,11.2782,11.76114306640625,11.0764C11.68254306640625,10.9022,11.63764306640625,10.715,11.62874306640625,10.5245C11.61034306640625,10.211,11.66074306640625,9.89728,11.77674306640625,9.6047C11.81714306640625,9.50822,11.87514306640625,9.41987,11.94804306640625,9.34408C12.01874306640625,9.26992,12.09704306640625,9.20313,12.18174306640625,9.14478C12.28484306640625,9.07135,12.38124306640625,8.98928,12.46994306640625,8.89949C12.57234306640625,8.79929,12.65664306640625,8.68264,12.71914306640625,8.55455C12.78924306640625,8.40124,12.85154306640625,8.24793,12.91384306640625,8.09463C12.97614306640625,7.94132,13.01514306640625,7.72669,13.06184306640625,7.54273C13.16654306640625,7.49683,13.25964306640625,7.42878,13.33444306640625,7.34343C13.43734306640625,7.24074,13.52164306640625,7.12148,13.58374306640625,6.99082C13.66714306640625,6.80078,13.71964306640625,6.59902,13.73954306640625,6.39293C13.76684306640625,6.23308,13.76684306640625,6.06986,13.73954306640625,5.91001C13.71734306640625,5.79855,13.68064306640625,5.69034,13.63044306640625,5.58807C13.60264306640625,5.49809,13.54504306640625,5.41984,13.46684306640625,5.36577C13.47744306640625,4.88648,13.44874306640625,4.40713,13.38124306640625,3.93236C13.32514306640625,3.49219,13.22594306640625,3.05836,13.08524306640625,2.63692C12.94994306640625,2.18294,12.73654306640625,1.75515,12.45434306640625,1.37214C12.31244306640625,1.1864,12.14454306640625,1.02125,11.95584306640625,0.881562C11.74534306640625,0.70812,11.51544306640625,0.558953,11.27043306640625,0.436973C10.99917306640625,0.309901,10.71785306640625,0.204794,10.42924306640625,0.122695C10.12492306640625,0.0396265,9.81039306640625,-0.00164578,9.49458306640625,0.0000502042C9.233253066406249,0.00443893,8.972743066406249,0.0300773,8.715703066406249,0.0767034C8.447033066406249,0.127507,8.18553306640625,0.209859,7.93681306640625,0.321994C7.28240306640625,0.589646,6.72193306640625,1.03998,6.32453306640625,1.61743C6.09181306640625,1.9767,5.91831306640625,2.36994,5.81046306640625,2.78256C5.59853306640625,3.62698,5.50937306640625,4.49671,5.54564306640625,5.36577C5.45850306640625,5.47972,5.39016306640625,5.60648,5.34313306640625,5.74138C5.287903066406249,5.86707,5.24613306640625,5.99809,5.21851306640625,6.13231C5.20254306640625,6.31599,5.22372306640625,6.50097,5.28082306640625,6.67654C5.31916306640625,6.84314,5.38776306640625,7.00154,5.48333306640625,7.14413C5.54884306640625,7.2342,5.62178306640625,7.31881,5.70142306640625,7.39708C5.77322306640625,7.45275,5.85518306640625,7.49438,5.94287306640625,7.51973L6.11423306640625,8.0793C6.16875306640625,8.2326,6.23106306640625,8.38591,6.29337306640625,8.53155C6.34858306640625,8.66406,6.43075306640625,8.78405,6.53482306640625,8.88416Q6.80743306640625,9.11412,7.04889306640625,9.36707C7.21444306640625,9.54856,7.30840306640625,9.78245,7.31371306640625,10.0263L7.31371306640625,10.5322C7.31094306640625,10.6859,7.28468306640625,10.8384,7.23582306640625,10.9845C7.16975306640625,11.1414,7.07762306640625,11.2865,6.96321306640625,11.4137C6.80332306640625,11.5861,6.61982306640625,11.7357,6.41799306640625,11.8583C6.10820306640625,12.0716,5.76288306640625,12.2298,5.39765306640625,12.3259C5.00042306640625,12.4332,3.3024630664062498,13.0541,2.93638306640625,13.1921C2.58725306640625,13.3101,2.26268206640625,13.4893,1.97835906640625,13.721C1.69715406640625,13.9883,1.51832806640625,14.343,1.47208506640625,14.7251C1.36854310640625,15.1777,1.34483126640625,15.6444,1.40198506640625,16.1049C1.39630586640625,16.4173,1.49178206640625,16.7233,1.67459406640625,16.9787C1.9526740664062499,17.1176,2.24882406640625,17.2182,2.55473306640625,17.2777C4.889363066406251,17.7517,7.26657306640625,17.9931,9.65036306640625,17.9982C11.98774306640625,18.0267,14.31634306640625,17.7115,16.55904306640625,17.0631C16.73864306640625,17.0147,16.904043066406253,16.9255,17.041943066406247,16.8024C17.132843066406252,16.6222,17.190843066406252,16.4276,17.21334306640625,16.2275C17.25134306640625,15.9609,17.26954306640625,15.6919,17.26784306640625,15.4227C17.26784306640625,15.1467,17.26784306640625,15.369,17.228943066406252,15.0931C17.21144306640625,14.8595,17.169743066406248,14.6283,17.104243066406248,14.4032L17.11984306640625,14.4338ZM10.50713306640625,16.1509C10.41719306640625,16.2657,10.31823306640625,16.3733,10.21115306640625,16.4728C10.10605306640625,16.5753,9.99130306640625,16.6677,9.86844306640625,16.7488C9.79342306640625,16.8116,9.70139306640625,16.8516,9.60362306640625,16.8638C9.51329306640625,16.8472,9.42801306640625,16.8105,9.35438306640625,16.7564C9.23086306640625,16.673,9.11371306640625,16.5808,9.00388306640625,16.4805C8.89275306640625,16.3798,8.79108306640625,16.2695,8.700123066406249,16.1509C8.63335306640625,16.0841,8.58973306640625,15.9982,8.575503066406249,15.9056C8.58007306640625,15.7561,8.59832306640625,15.6073,8.630023066406249,15.461C8.630023066406249,15.2694,8.715703066406249,15.0547,8.762433066406249,14.8401C8.80916306640625,14.6255,8.86368306640625,14.4109,8.92599306640625,14.2039C8.98831306640625,13.9969,9.01167306640625,13.8896,9.05840306640625,13.7363C8.94288306640625,13.6343,8.84082306640625,13.5184,8.75464306640625,13.3914C8.69480306640625,13.3084,8.66218306640625,13.2095,8.66117306640625,13.1077C8.66417306640625,13.0051,8.693653066406249,12.9048,8.74685306640625,12.8165C8.798283066406249,12.7272,8.861103066406251,12.6448,8.93378306640625,12.5712C9.02254306640625,12.4768,9.11892306640625,12.3896,9.22197306640625,12.3106L10.06316306640625,12.3106L10.35135306640625,12.5712C10.43749306640625,12.6442,10.50884306640625,12.7327,10.56165306640625,12.8318C10.62351306640625,12.9166,10.65625306640625,13.0187,10.65511306640625,13.1231C10.65083306640625,13.2491,10.61032306640625,13.3714,10.53828306640625,13.4757C10.44386306640625,13.5939,10.33679306640625,13.7019,10.21894306640625,13.7976C10.21894306640625,13.9356,10.29683306640625,14.0966,10.33578306640625,14.3112L10.47597306640625,14.9474C10.47597306640625,15.1544,10.56165306640625,15.3537,10.59281306640625,15.5377C10.61801306640625,15.6615,10.63363306640625,15.7871,10.63954306640625,15.9133C10.62584306640625,16.0083,10.58227306640625,16.0968,10.51492306640625,16.1662L10.50713306640625,16.1509Z" fill="#4E8CEE" fill-opacity="1" style="mix-blend-mode:passthrough"/></g></g></svg>