<svg
  xmlns="http://www.w3.org/2000/svg"
  xmlns:xlink="http://www.w3.org/1999/xlink"
  fill="none"
  version="1.1"
  width="12"
  height="12"
  viewBox="0 0 12 12"
>
  <defs>
    <clipPath id="master_svg0_8_01142">
      <rect
        x="12"
        y="0"
        width="12"
        height="12"
        rx="0"
      />
    </clipPath>
  </defs>
  <g
    transform="matrix(0,1,-1,0,12,-12)"
    clip-path="url(#master_svg0_8_01142)"
  >
    <g>
      <path
        d="M21.15230732421875,5.3406179296875L16.06117732421875,0.2494829296875C15.72705732421875,-0.0833238703125,15.18673632421875,-0.0833238703125,14.85261732421875,0.2494829296875C14.51750482421875,0.5836029296875,14.51750482421875,1.1263679296875,14.85261732421875,1.4604879296875L19.39084732421875,5.9987179296875L14.85261732421875,10.5393779296875C14.60747647421875,10.7837779296875,14.53389332421875,11.1518779296875,14.66623562421875,11.4717779296875C14.79857832421875,11.7916779296875,15.11073032421875,12.0001779296875,15.45689832421875,11.9999779296875C15.67463732421875,11.9999779296875,15.89481732421875,11.9167779296875,16.06117732421875,11.7503779296875L21.14986732421875,6.6617179296875C21.33090732421875,6.4806779296875,21.411637324218752,6.2384779296875,21.39451732421875,6.0011679296875C21.409197324218752,5.7638579296875,21.33090732421875,5.5216579296875,21.14986732421875,5.3406179296875L21.15230732421875,5.3406179296875Z"
        fill-opacity="1"
        style="mix-blend-mode:passthrough"
      />
    </g>
  </g>
</svg>